<svg width="1920" height="1080" viewBox="0 0 1920 1080" fill="none" xmlns="http://www.w3.org/2000/svg">
<g clip-path="url(#clip0_371_4298)">
<rect width="1920" height="1080" fill="#F8E9D4" style="fill:#F8E9D4;fill:color(display-p3 0.9725 0.9137 0.8314);fill-opacity:1;"/>
<line x1="0.5" y1="333" x2="0.499986" y2="642" stroke="#823C47" style="stroke:#823C47;stroke:color(display-p3 0.5098 0.2353 0.2784);stroke-opacity:1;"/>
<line x1="19.5" y1="333" x2="19.5" y2="642" stroke="#823C47" style="stroke:#823C47;stroke:color(display-p3 0.5098 0.2353 0.2784);stroke-opacity:1;"/>
<line x1="39.5" y1="333" x2="39.5" y2="642" stroke="#823C47" style="stroke:#823C47;stroke:color(display-p3 0.5098 0.2353 0.2784);stroke-opacity:1;"/>
<line x1="58.5" y1="333" x2="58.5" y2="642" stroke="#823C47" style="stroke:#823C47;stroke:color(display-p3 0.5098 0.2353 0.2784);stroke-opacity:1;"/>
<line x1="77.5" y1="333" x2="77.5" y2="642" stroke="#823C47" style="stroke:#823C47;stroke:color(display-p3 0.5098 0.2353 0.2784);stroke-opacity:1;"/>
<line x1="97.5" y1="333" x2="97.5" y2="642" stroke="#823C47" style="stroke:#823C47;stroke:color(display-p3 0.5098 0.2353 0.2784);stroke-opacity:1;"/>
<line x1="116.5" y1="333" x2="116.5" y2="642" stroke="#823C47" style="stroke:#823C47;stroke:color(display-p3 0.5098 0.2353 0.2784);stroke-opacity:1;"/>
<line x1="136.5" y1="333" x2="136.5" y2="642" stroke="#823C47" style="stroke:#823C47;stroke:color(display-p3 0.5098 0.2353 0.2784);stroke-opacity:1;"/>
<line x1="155.5" y1="333" x2="155.5" y2="642" stroke="#823C47" style="stroke:#823C47;stroke:color(display-p3 0.5098 0.2353 0.2784);stroke-opacity:1;"/>
<line x1="174.5" y1="333" x2="174.5" y2="642" stroke="#823C47" style="stroke:#823C47;stroke:color(display-p3 0.5098 0.2353 0.2784);stroke-opacity:1;"/>
<line x1="194.5" y1="333" x2="194.5" y2="642" stroke="#823C47" style="stroke:#823C47;stroke:color(display-p3 0.5098 0.2353 0.2784);stroke-opacity:1;"/>
<line x1="213.5" y1="333" x2="213.5" y2="642" stroke="#823C47" style="stroke:#823C47;stroke:color(display-p3 0.5098 0.2353 0.2784);stroke-opacity:1;"/>
<line x1="232.5" y1="333" x2="232.5" y2="642" stroke="#823C47" style="stroke:#823C47;stroke:color(display-p3 0.5098 0.2353 0.2784);stroke-opacity:1;"/>
<line x1="252.5" y1="333" x2="252.5" y2="642" stroke="#823C47" style="stroke:#823C47;stroke:color(display-p3 0.5098 0.2353 0.2784);stroke-opacity:1;"/>
<line x1="271.5" y1="333" x2="271.5" y2="642" stroke="#823C47" style="stroke:#823C47;stroke:color(display-p3 0.5098 0.2353 0.2784);stroke-opacity:1;"/>
<line x1="291.5" y1="333" x2="291.5" y2="642" stroke="#823C47" style="stroke:#823C47;stroke:color(display-p3 0.5098 0.2353 0.2784);stroke-opacity:1;"/>
<line x1="310.5" y1="333" x2="310.5" y2="642" stroke="#823C47" style="stroke:#823C47;stroke:color(display-p3 0.5098 0.2353 0.2784);stroke-opacity:1;"/>
<line x1="329.5" y1="333" x2="329.5" y2="642" stroke="#823C47" style="stroke:#823C47;stroke:color(display-p3 0.5098 0.2353 0.2784);stroke-opacity:1;"/>
<line x1="349.5" y1="333" x2="349.5" y2="642" stroke="#823C47" style="stroke:#823C47;stroke:color(display-p3 0.5098 0.2353 0.2784);stroke-opacity:1;"/>
<line x1="368.5" y1="333" x2="368.5" y2="642" stroke="#823C47" style="stroke:#823C47;stroke:color(display-p3 0.5098 0.2353 0.2784);stroke-opacity:1;"/>
<line x1="387.5" y1="333" x2="387.5" y2="642" stroke="#823C47" style="stroke:#823C47;stroke:color(display-p3 0.5098 0.2353 0.2784);stroke-opacity:1;"/>
<line x1="407.5" y1="333" x2="407.5" y2="642" stroke="#823C47" style="stroke:#823C47;stroke:color(display-p3 0.5098 0.2353 0.2784);stroke-opacity:1;"/>
<line x1="426.5" y1="333" x2="426.5" y2="642" stroke="#823C47" style="stroke:#823C47;stroke:color(display-p3 0.5098 0.2353 0.2784);stroke-opacity:1;"/>
<line x1="446.5" y1="333" x2="446.5" y2="642" stroke="#823C47" style="stroke:#823C47;stroke:color(display-p3 0.5098 0.2353 0.2784);stroke-opacity:1;"/>
<line x1="465.5" y1="333" x2="465.5" y2="642" stroke="#823C47" style="stroke:#823C47;stroke:color(display-p3 0.5098 0.2353 0.2784);stroke-opacity:1;"/>
<line x1="484.5" y1="333" x2="484.5" y2="642" stroke="#823C47" style="stroke:#823C47;stroke:color(display-p3 0.5098 0.2353 0.2784);stroke-opacity:1;"/>
<line x1="504.5" y1="333" x2="504.5" y2="642" stroke="#823C47" style="stroke:#823C47;stroke:color(display-p3 0.5098 0.2353 0.2784);stroke-opacity:1;"/>
<line x1="523.5" y1="333" x2="523.5" y2="642" stroke="#823C47" style="stroke:#823C47;stroke:color(display-p3 0.5098 0.2353 0.2784);stroke-opacity:1;"/>
<line x1="542.5" y1="333" x2="542.5" y2="642" stroke="#823C47" style="stroke:#823C47;stroke:color(display-p3 0.5098 0.2353 0.2784);stroke-opacity:1;"/>
<line x1="562.5" y1="333" x2="562.5" y2="642" stroke="#823C47" style="stroke:#823C47;stroke:color(display-p3 0.5098 0.2353 0.2784);stroke-opacity:1;"/>
<line x1="581.5" y1="333" x2="581.5" y2="642" stroke="#823C47" style="stroke:#823C47;stroke:color(display-p3 0.5098 0.2353 0.2784);stroke-opacity:1;"/>
<line x1="601.5" y1="333" x2="601.5" y2="642" stroke="#823C47" style="stroke:#823C47;stroke:color(display-p3 0.5098 0.2353 0.2784);stroke-opacity:1;"/>
<line x1="620.5" y1="333" x2="620.5" y2="642" stroke="#823C47" style="stroke:#823C47;stroke:color(display-p3 0.5098 0.2353 0.2784);stroke-opacity:1;"/>
<line x1="639.5" y1="333" x2="639.5" y2="642" stroke="#823C47" style="stroke:#823C47;stroke:color(display-p3 0.5098 0.2353 0.2784);stroke-opacity:1;"/>
<line x1="659.5" y1="333" x2="659.5" y2="642" stroke="#823C47" style="stroke:#823C47;stroke:color(display-p3 0.5098 0.2353 0.2784);stroke-opacity:1;"/>
<line x1="678.5" y1="333" x2="678.5" y2="642" stroke="#823C47" style="stroke:#823C47;stroke:color(display-p3 0.5098 0.2353 0.2784);stroke-opacity:1;"/>
<line x1="697.5" y1="333" x2="697.5" y2="642" stroke="#823C47" style="stroke:#823C47;stroke:color(display-p3 0.5098 0.2353 0.2784);stroke-opacity:1;"/>
<line x1="736.5" y1="333" x2="736.5" y2="642" stroke="#823C47" style="stroke:#823C47;stroke:color(display-p3 0.5098 0.2353 0.2784);stroke-opacity:1;"/>
<line x1="775.5" y1="333" x2="775.5" y2="642" stroke="#823C47" style="stroke:#823C47;stroke:color(display-p3 0.5098 0.2353 0.2784);stroke-opacity:1;"/>
<line x1="794.5" y1="333" x2="794.5" y2="642" stroke="#823C47" style="stroke:#823C47;stroke:color(display-p3 0.5098 0.2353 0.2784);stroke-opacity:1;"/>
<line x1="814.5" y1="333" x2="814.5" y2="642" stroke="#823C47" style="stroke:#823C47;stroke:color(display-p3 0.5098 0.2353 0.2784);stroke-opacity:1;"/>
<line x1="756.5" y1="333" x2="756.5" y2="642" stroke="#823C47" style="stroke:#823C47;stroke:color(display-p3 0.5098 0.2353 0.2784);stroke-opacity:1;"/>
<line x1="717.5" y1="333" x2="717.5" y2="642" stroke="#823C47" style="stroke:#823C47;stroke:color(display-p3 0.5098 0.2353 0.2784);stroke-opacity:1;"/>
<line x1="833.5" y1="333" x2="833.5" y2="642" stroke="#823C47" style="stroke:#823C47;stroke:color(display-p3 0.5098 0.2353 0.2784);stroke-opacity:1;"/>
<line x1="1027.61" y1="333" x2="1027.61" y2="642" stroke="#823C47" style="stroke:#823C47;stroke:color(display-p3 0.5098 0.2353 0.2784);stroke-opacity:1;"/>
<line x1="1008.2" y1="333" x2="1008.2" y2="642" stroke="#823C47" style="stroke:#823C47;stroke:color(display-p3 0.5098 0.2353 0.2784);stroke-opacity:1;"/>
<line x1="988.785" y1="333" x2="988.785" y2="642" stroke="#823C47" style="stroke:#823C47;stroke:color(display-p3 0.5098 0.2353 0.2784);stroke-opacity:1;"/>
<line x1="969.375" y1="333" x2="969.375" y2="642" stroke="#823C47" style="stroke:#823C47;stroke:color(display-p3 0.5098 0.2353 0.2784);stroke-opacity:1;"/>
<line x1="949.965" y1="333" x2="949.965" y2="642" stroke="#823C47" style="stroke:#823C47;stroke:color(display-p3 0.5098 0.2353 0.2784);stroke-opacity:1;"/>
<line x1="930.553" y1="333" x2="930.553" y2="642" stroke="#823C47" style="stroke:#823C47;stroke:color(display-p3 0.5098 0.2353 0.2784);stroke-opacity:1;"/>
<line x1="911.143" y1="333" x2="911.143" y2="642" stroke="#823C47" style="stroke:#823C47;stroke:color(display-p3 0.5098 0.2353 0.2784);stroke-opacity:1;"/>
<line x1="891.732" y1="333" x2="891.732" y2="642" stroke="#823C47" style="stroke:#823C47;stroke:color(display-p3 0.5098 0.2353 0.2784);stroke-opacity:1;"/>
<line x1="872.322" y1="333" x2="872.322" y2="642" stroke="#823C47" style="stroke:#823C47;stroke:color(display-p3 0.5098 0.2353 0.2784);stroke-opacity:1;"/>
<line x1="852.91" y1="333" x2="852.91" y2="642" stroke="#823C47" style="stroke:#823C47;stroke:color(display-p3 0.5098 0.2353 0.2784);stroke-opacity:1;"/>
<line x1="833.5" y1="333" x2="833.5" y2="642" stroke="#823C47" style="stroke:#823C47;stroke:color(display-p3 0.5098 0.2353 0.2784);stroke-opacity:1;"/>
<line x1="1047.02" y1="333" x2="1047.02" y2="642" stroke="#823C47" style="stroke:#823C47;stroke:color(display-p3 0.5098 0.2353 0.2784);stroke-opacity:1;"/>
<line x1="1066.43" y1="333" x2="1066.43" y2="642" stroke="#823C47" style="stroke:#823C47;stroke:color(display-p3 0.5098 0.2353 0.2784);stroke-opacity:1;"/>
<line x1="1085.84" y1="333" x2="1085.84" y2="642" stroke="#823C47" style="stroke:#823C47;stroke:color(display-p3 0.5098 0.2353 0.2784);stroke-opacity:1;"/>
<line x1="1105.25" y1="333" x2="1105.25" y2="642" stroke="#823C47" style="stroke:#823C47;stroke:color(display-p3 0.5098 0.2353 0.2784);stroke-opacity:1;"/>
<line x1="1124.66" y1="333" x2="1124.66" y2="642" stroke="#823C47" style="stroke:#823C47;stroke:color(display-p3 0.5098 0.2353 0.2784);stroke-opacity:1;"/>
<line x1="1144.07" y1="333" x2="1144.07" y2="642" stroke="#823C47" style="stroke:#823C47;stroke:color(display-p3 0.5098 0.2353 0.2784);stroke-opacity:1;"/>
<line x1="1163.48" y1="333" x2="1163.48" y2="642" stroke="#823C47" style="stroke:#823C47;stroke:color(display-p3 0.5098 0.2353 0.2784);stroke-opacity:1;"/>
<line x1="1182.89" y1="333" x2="1182.89" y2="642" stroke="#823C47" style="stroke:#823C47;stroke:color(display-p3 0.5098 0.2353 0.2784);stroke-opacity:1;"/>
<line x1="1202.3" y1="333" x2="1202.3" y2="642" stroke="#823C47" style="stroke:#823C47;stroke:color(display-p3 0.5098 0.2353 0.2784);stroke-opacity:1;"/>
<line x1="1221.71" y1="333" x2="1221.71" y2="642" stroke="#823C47" style="stroke:#823C47;stroke:color(display-p3 0.5098 0.2353 0.2784);stroke-opacity:1;"/>
<line x1="1241.12" y1="333" x2="1241.12" y2="642" stroke="#823C47" style="stroke:#823C47;stroke:color(display-p3 0.5098 0.2353 0.2784);stroke-opacity:1;"/>
<line x1="1260.54" y1="333" x2="1260.54" y2="642" stroke="#823C47" style="stroke:#823C47;stroke:color(display-p3 0.5098 0.2353 0.2784);stroke-opacity:1;"/>
<line x1="1279.95" y1="333" x2="1279.95" y2="642" stroke="#823C47" style="stroke:#823C47;stroke:color(display-p3 0.5098 0.2353 0.2784);stroke-opacity:1;"/>
<line x1="1299.36" y1="333" x2="1299.36" y2="642" stroke="#823C47" style="stroke:#823C47;stroke:color(display-p3 0.5098 0.2353 0.2784);stroke-opacity:1;"/>
<line x1="1318.77" y1="333" x2="1318.77" y2="642" stroke="#823C47" style="stroke:#823C47;stroke:color(display-p3 0.5098 0.2353 0.2784);stroke-opacity:1;"/>
<line x1="1338.18" y1="333" x2="1338.18" y2="642" stroke="#823C47" style="stroke:#823C47;stroke:color(display-p3 0.5098 0.2353 0.2784);stroke-opacity:1;"/>
<line x1="1357.59" y1="333" x2="1357.59" y2="642" stroke="#823C47" style="stroke:#823C47;stroke:color(display-p3 0.5098 0.2353 0.2784);stroke-opacity:1;"/>
<line x1="1377" y1="333" x2="1377" y2="642" stroke="#823C47" style="stroke:#823C47;stroke:color(display-p3 0.5098 0.2353 0.2784);stroke-opacity:1;"/>
<line x1="1396.41" y1="333" x2="1396.41" y2="642" stroke="#823C47" style="stroke:#823C47;stroke:color(display-p3 0.5098 0.2353 0.2784);stroke-opacity:1;"/>
<line x1="1415.82" y1="333" x2="1415.82" y2="642" stroke="#823C47" style="stroke:#823C47;stroke:color(display-p3 0.5098 0.2353 0.2784);stroke-opacity:1;"/>
<line x1="1435.23" y1="333" x2="1435.23" y2="642" stroke="#823C47" style="stroke:#823C47;stroke:color(display-p3 0.5098 0.2353 0.2784);stroke-opacity:1;"/>
<line x1="1454.64" y1="333" x2="1454.64" y2="642" stroke="#823C47" style="stroke:#823C47;stroke:color(display-p3 0.5098 0.2353 0.2784);stroke-opacity:1;"/>
<line x1="1474.05" y1="333" x2="1474.05" y2="642" stroke="#823C47" style="stroke:#823C47;stroke:color(display-p3 0.5098 0.2353 0.2784);stroke-opacity:1;"/>
<line x1="1493.46" y1="333" x2="1493.46" y2="642" stroke="#823C47" style="stroke:#823C47;stroke:color(display-p3 0.5098 0.2353 0.2784);stroke-opacity:1;"/>
<line x1="1512.88" y1="333" x2="1512.88" y2="642" stroke="#823C47" style="stroke:#823C47;stroke:color(display-p3 0.5098 0.2353 0.2784);stroke-opacity:1;"/>
<line x1="1532.29" y1="333" x2="1532.29" y2="642" stroke="#823C47" style="stroke:#823C47;stroke:color(display-p3 0.5098 0.2353 0.2784);stroke-opacity:1;"/>
<line x1="1551.7" y1="333" x2="1551.7" y2="642" stroke="#823C47" style="stroke:#823C47;stroke:color(display-p3 0.5098 0.2353 0.2784);stroke-opacity:1;"/>
<line x1="1571.11" y1="333" x2="1571.11" y2="642" stroke="#823C47" style="stroke:#823C47;stroke:color(display-p3 0.5098 0.2353 0.2784);stroke-opacity:1;"/>
<line x1="1590.52" y1="333" x2="1590.52" y2="642" stroke="#823C47" style="stroke:#823C47;stroke:color(display-p3 0.5098 0.2353 0.2784);stroke-opacity:1;"/>
<line x1="1609.93" y1="333" x2="1609.93" y2="642" stroke="#823C47" style="stroke:#823C47;stroke:color(display-p3 0.5098 0.2353 0.2784);stroke-opacity:1;"/>
<line x1="1629.34" y1="333" x2="1629.34" y2="642" stroke="#823C47" style="stroke:#823C47;stroke:color(display-p3 0.5098 0.2353 0.2784);stroke-opacity:1;"/>
<line x1="1648.75" y1="333" x2="1648.75" y2="642" stroke="#823C47" style="stroke:#823C47;stroke:color(display-p3 0.5098 0.2353 0.2784);stroke-opacity:1;"/>
<line x1="1668.16" y1="333" x2="1668.16" y2="642" stroke="#823C47" style="stroke:#823C47;stroke:color(display-p3 0.5098 0.2353 0.2784);stroke-opacity:1;"/>
<line x1="1687.57" y1="333" x2="1687.57" y2="642" stroke="#823C47" style="stroke:#823C47;stroke:color(display-p3 0.5098 0.2353 0.2784);stroke-opacity:1;"/>
<line x1="1706.98" y1="333" x2="1706.98" y2="642" stroke="#823C47" style="stroke:#823C47;stroke:color(display-p3 0.5098 0.2353 0.2784);stroke-opacity:1;"/>
<line x1="1726.39" y1="333" x2="1726.39" y2="642" stroke="#823C47" style="stroke:#823C47;stroke:color(display-p3 0.5098 0.2353 0.2784);stroke-opacity:1;"/>
<line x1="1745.8" y1="333" x2="1745.8" y2="642" stroke="#823C47" style="stroke:#823C47;stroke:color(display-p3 0.5098 0.2353 0.2784);stroke-opacity:1;"/>
<line x1="1765.21" y1="333" x2="1765.21" y2="642" stroke="#823C47" style="stroke:#823C47;stroke:color(display-p3 0.5098 0.2353 0.2784);stroke-opacity:1;"/>
<line x1="1784.62" y1="333" x2="1784.62" y2="642" stroke="#823C47" style="stroke:#823C47;stroke:color(display-p3 0.5098 0.2353 0.2784);stroke-opacity:1;"/>
<line x1="1804.04" y1="333" x2="1804.04" y2="642" stroke="#823C47" style="stroke:#823C47;stroke:color(display-p3 0.5098 0.2353 0.2784);stroke-opacity:1;"/>
<line x1="1823.45" y1="333" x2="1823.45" y2="642" stroke="#823C47" style="stroke:#823C47;stroke:color(display-p3 0.5098 0.2353 0.2784);stroke-opacity:1;"/>
<line x1="1842.86" y1="333" x2="1842.86" y2="642" stroke="#823C47" style="stroke:#823C47;stroke:color(display-p3 0.5098 0.2353 0.2784);stroke-opacity:1;"/>
<line x1="1862.27" y1="333" x2="1862.27" y2="642" stroke="#823C47" style="stroke:#823C47;stroke:color(display-p3 0.5098 0.2353 0.2784);stroke-opacity:1;"/>
<line x1="1881.68" y1="333" x2="1881.68" y2="642" stroke="#823C47" style="stroke:#823C47;stroke:color(display-p3 0.5098 0.2353 0.2784);stroke-opacity:1;"/>
<line x1="1901.09" y1="333" x2="1901.09" y2="642" stroke="#823C47" style="stroke:#823C47;stroke:color(display-p3 0.5098 0.2353 0.2784);stroke-opacity:1;"/>
<path d="M1625 793.566C1746.83 783.887 1919 652.066 1919 652.066V1195.04H0V798.566C0 798.566 102.5 729.542 256.5 728.542C410.5 727.542 492.087 782.001 615.5 741.549C750.685 697.238 812.261 558.541 932.5 562.066C998.251 563.994 1025.27 654.547 1091 652.066C1150.53 649.819 1178.5 597.066 1232.5 597.066C1286.5 597.066 1468.7 805.983 1625 793.566Z" fill="#F8E9D4" style="fill:#F8E9D4;fill:color(display-p3 0.9725 0.9137 0.8314);fill-opacity:1;"/>
<path d="M1624.58 290.471C1746.38 278.778 1919 178.113 1919 178.113V-165H0V352.087C0 352.087 131.966 246.978 285.926 245.77C439.885 244.562 518.474 429.127 673.824 390.747C791.647 361.639 812.049 184.124 932.257 188.383C997.991 190.712 1025 260.244 1090.72 257.247C1150.23 254.533 1178.19 188.383 1232.18 188.383C1286.16 188.383 1468.32 305.473 1624.58 290.471Z" fill="#F8E9D4" style="fill:#F8E9D4;fill:color(display-p3 0.9725 0.9137 0.8314);fill-opacity:1;"/>
</g>
<defs>
<clipPath id="clip0_371_4298">
<rect width="1920" height="1080" fill="white" style="fill:white;fill-opacity:1;"/>
</clipPath>
</defs>
</svg>
