<svg width="8" height="12" viewBox="0 0 8 12" fill="none" xmlns="http://www.w3.org/2000/svg">
<path d="M2.52604 6L7.70623 1.90276C7.89686 1.74665 8.00234 1.53756 7.99996 1.32053C7.99758 1.10351 7.88752 0.895902 7.69349 0.742435C7.49946 0.588968 7.23698 0.501917 6.96259 0.500031C6.6882 0.498145 6.42385 0.581576 6.22648 0.732352L0.306402 5.4148C0.110213 5.57002 0 5.78052 0 6C0 6.21948 0.110213 6.42998 0.306402 6.5852L6.22648 11.2676C6.42385 11.4184 6.6882 11.5019 6.96259 11.5C7.23698 11.4981 7.49946 11.411 7.69349 11.2576C7.88752 11.1041 7.99758 10.8965 7.99996 10.6795C8.00234 10.4624 7.89686 10.2534 7.70623 10.0972L2.52604 6Z" fill="#C07841"/>
</svg>
